<svg enable-background="new 0 0 407.534 407.534" viewBox="0 0 407.534 407.534" xmlns="http://www.w3.org/2000/svg"><path d="m406.962 226.838c-.001-.002-.001-.003-.002-.005l-76.944-193.2c-1.633-4.105-6.286-6.109-10.391-4.476-.003.001-.006.002-.009.004l-312.152 124.296c-1.273.55-2.377 1.428-3.2 2.544-2.596 1.349-4.236 4.019-4.264 6.944v208c0 4.418 3.582 8 8 8h336c4.418 0 8-3.582 8-8v-113.6l50.496-20.112c4.104-1.637 6.103-6.291 4.466-10.395zm-70.962 136.107h-320v-192h320zm-202.52-207.96 133.952-53.376c11.955 12.566 28.52 19.708 45.864 19.776l13.36 33.6zm218.52 85.176v-77.216c0-4.418-3.582-8-8-8h-.128l-16.952-42.576c-.188-.355-.407-.693-.656-1.008-.858-3.853-4.426-6.482-8.36-6.16-16.138 1.471-31.925-5.327-41.944-18.064-2.493-3.077-6.875-3.842-10.264-1.792-.38.045-.757.115-1.128.208l-163.536 65.12c-1.979.776-3.562 2.315-4.392 4.272h-49.664l271.136-107.96 71.032 178.36z"/><path d="m37.712 308.937c15.532 4.591 27.686 16.73 32.296 32.256 1.011 3.389 4.128 5.711 7.664 5.712.415-.026.827-.088 1.232-.184.359.102.726.177 1.096.224h192c.33-.043.656-.11.976-.2 3.997.972 8.025-1.479 8.998-5.476.003-.015.007-.029.01-.044 4.598-15.542 16.754-27.698 32.296-32.296 3.769-1.152 6.111-4.908 5.488-8.8.107-.388.184-.784.232-1.184v-64c-.047-.401-.127-.797-.24-1.184.627-3.893-1.716-7.651-5.488-8.8-15.542-4.597-27.695-16.758-32.28-32.304-1.158-3.795-4.951-6.143-8.864-5.488-.37-.103-.747-.178-1.128-.224h-192c-.403.048-.802.128-1.192.24-3.891-.62-7.645 1.721-8.8 5.488-4.601 15.539-16.756 27.691-32.296 32.288-3.769 1.152-6.111 4.908-5.488 8.8-.104.389-.179.784-.224 1.184v64c.046.376.121.748.224 1.112-.656 3.917 1.691 7.715 5.488 8.88zm10.288-70.744c16.064-6.452 28.796-19.184 35.248-35.248h185.496c6.455 16.064 19.19 28.796 35.256 35.248v57.504c-16.059 6.459-28.789 19.189-35.248 35.248h-185.504c-6.459-16.059-19.189-28.789-35.248-35.248z"/><path d="m176 314.945c26.51 0 48-21.49 48-48s-21.49-48-48-48-48 21.49-48 48c.026 26.499 21.501 47.974 48 48zm0-80c17.673 0 32 14.327 32 32s-14.327 32-32 32-32-14.327-32-32 14.327-32 32-32z"/><path d="m88 278.945c6.627 0 12-5.373 12-12s-5.373-12-12-12-12 5.373-12 12c0 6.628 5.373 12 12 12zm0-16c2.209 0 4 1.791 4 4s-1.791 4-4 4-4-1.791-4-4 1.791-4 4-4z"/><path d="m264 278.945c6.627 0 12-5.373 12-12s-5.373-12-12-12-12 5.373-12 12c0 6.628 5.373 12 12 12zm0-16c2.209 0 4 1.791 4 4s-1.791 4-4 4-4-1.791-4-4 1.791-4 4-4z"/></svg>